<?xml version="1.0" encoding="UTF-8"?>
<svg xmlns="http://www.w3.org/2000/svg" width="275" height="58" viewBox="0 0 275 58" fill="none">
  <g clip-path="url(#clip0_1459_1614)">
    <path d="M54.4552 8.1739L33.6649 15.6935C33.4782 15.7617 33.3084 15.8553 33.1641 15.966V47.8329C33.8177 48.3184 34.7685 48.395 35.5071 47.8159L38.1303 45.7721C38.5548 45.4399 38.8264 44.9375 38.8689 44.401L40.4394 25.0611C40.4988 24.3202 40.9742 23.6815 41.6619 23.409L54.2005 18.5208C54.7948 18.2909 55.2278 17.7885 55.3806 17.1668L56.9935 10.4562C57.3501 8.95737 55.9069 7.65442 54.4552 8.1739Z" fill="#CF3339"></path>
    <path d="M10.5886 8.1739L31.3789 15.6935C31.5656 15.7617 31.7354 15.8553 31.8797 15.966V47.8329C31.2261 48.3184 30.2753 48.395 29.5367 47.8159L26.9135 45.7721C26.489 45.4399 26.2174 44.9375 26.1749 44.401L24.6044 25.0611C24.545 24.3202 24.0696 23.6815 23.382 23.409L10.8433 18.5208C10.249 18.2909 9.81605 17.7885 9.66325 17.1668L8.05877 10.4562C7.70222 8.95737 9.1454 7.65442 10.5971 8.1739H10.5886Z" fill="#CF3339"></path>
    <path d="M72.4768 2H71.7383V56H72.4768V2Z" fill="#E6E7E8"></path>
    <path d="M98.9708 12.0832V28.6979H94.0895V12.0832H87.7734V7.59521H105.278V12.0832H98.9623H98.9708Z" fill="#231F20"></path>
    <path d="M120.797 28.6975L119.218 24.8653H111.959L110.38 28.6975H105.414L115.313 7.41602H115.975L125.873 28.6975H120.797ZM115.601 16.0512L113.504 21.1183H117.664L115.601 16.0512Z" fill="#231F20"></path>
    <path d="M134.202 28.8679H133.625L123.582 7.58643H129.176L133.973 18.9894L138.769 7.58643H144.253L134.211 28.8679H134.202Z" fill="#231F20"></path>
    <path d="M148.66 28.6976V7.58643H153.542V28.6891H148.66V28.6976Z" fill="#231F20"></path>
    <path d="M165.952 29.0383C163.566 29.0383 160.697 28.0845 158.863 26.8752L160.213 22.4384C161.902 23.6732 164.118 24.4822 166.096 24.4822C167.819 24.4822 168.482 23.6732 168.482 22.6428C168.482 21.5527 167.938 20.8033 164.721 19.5004C161.02 18.0015 159.729 15.847 159.729 13.3092C159.729 10.2264 162.225 7.2373 167.132 7.2373C169.424 7.2373 171.784 8.04633 173.015 8.88089L171.784 13.2581C170.579 12.4236 168.626 11.5294 167.132 11.5294C165.349 11.5294 164.636 12.3639 164.636 13.2241C164.636 14.6037 165.697 15.0635 168.337 16.1876C172.268 17.8568 173.448 19.7558 173.448 22.4639C173.448 25.8363 171.011 29.0298 165.96 29.0298L165.952 29.0383Z" fill="#231F20"></path>
    <path d="M188.643 12.0832V28.6979H183.761V12.0832H177.445V7.59521H194.95V12.0832H188.634H188.643Z" fill="#231F20"></path>
    <path d="M209.289 29.0381C202.769 29.0381 198.609 24.3457 198.609 18.1546C198.609 11.9635 202.973 7.24561 209.484 7.24561C215.995 7.24561 220.164 11.9379 220.164 18.1546C220.164 24.3713 215.775 29.0381 209.289 29.0381ZM209.374 11.6228C206.046 11.6228 203.805 14.3565 203.805 18.1631C203.805 21.9698 206.046 24.7034 209.374 24.7034C212.702 24.7034 214.943 21.9357 214.943 18.1631C214.943 14.3905 212.702 11.6228 209.374 11.6228Z" fill="#231F20"></path>
    <path d="M236.539 29.0381C229.679 29.0381 225.027 24.4054 225.027 18.1546C225.027 11.9039 229.679 7.24561 236.539 7.24561C238.975 7.24561 241.216 7.96947 243.11 9.08506L241.615 13.2324C240.062 12.3722 238.313 11.8187 236.59 11.8187C232.659 11.8187 230.214 14.2372 230.214 18.1546C230.214 22.072 232.651 24.4905 236.59 24.4905C238.313 24.4905 240.266 23.9114 241.845 22.9321L243.305 27.0794C241.471 28.2887 238.941 29.0381 236.53 29.0381H236.539Z" fill="#231F20"></path>
    <path d="M261.118 28.6976L253.393 18.819V28.6976H248.512V7.58643H253.393V16.7752L260.77 7.58643H266.543L257.901 17.6353L267.001 28.6891H261.118V28.6976Z" fill="#231F20"></path>
    <path d="M94.0234 44.8608H96.7909C99.3972 44.8608 101.205 46.6577 101.205 48.9996V49.0252C101.205 51.3671 99.4056 53.1895 96.7909 53.1895H94.0234V44.8608ZM96.7909 52.6274C99.1085 52.6274 100.56 51.0435 100.56 49.0592V49.0337C100.56 47.058 99.1 45.4399 96.7909 45.4399H94.6432V52.6274H96.7909Z" fill="#6D6E71"></path>
    <path d="M104.082 44.8608H109.991V45.4314H104.702V48.7016H109.456V49.2721H104.702V52.6189H110.05V53.1895H104.082V44.8608Z" fill="#6D6E71"></path>
    <path d="M112.25 44.8608H112.938L116.189 52.5252L119.449 44.8608H120.103L116.452 53.2491H115.909L112.258 44.8608H112.25Z" fill="#6D6E71"></path>
    <path d="M122.555 44.8608H128.463V45.4314H123.174V48.7016H127.928V49.2721H123.174V52.6189H128.523V53.1895H122.555V44.8608Z" fill="#6D6E71"></path>
    <path d="M131.086 44.8608H131.706V52.6189H136.579V53.1895H131.086V44.8608Z" fill="#6D6E71"></path>
    <path d="M138.074 49.051V49.0254C138.074 46.7516 139.747 44.7163 142.259 44.7163C144.772 44.7163 146.428 46.7261 146.428 48.9999V49.0254C146.428 51.2992 144.755 53.3345 142.242 53.3345C139.73 53.3345 138.074 51.3247 138.074 49.051ZM145.791 49.051V49.0254C145.791 46.9645 144.297 45.2784 142.242 45.2784C140.188 45.2784 138.719 46.9475 138.719 48.9999V49.0254C138.719 51.0863 140.214 52.7725 142.268 52.7725C144.322 52.7725 145.791 51.1033 145.791 49.051Z" fill="#6D6E71"></path>
    <path d="M149.333 44.8608H152.346C154.172 44.8608 155.428 45.7976 155.428 47.4071V47.4327C155.428 49.1785 153.925 50.0897 152.185 50.0897H149.944V53.198H149.324V44.8694L149.333 44.8608ZM152.228 49.5191C153.773 49.5191 154.817 48.7101 154.817 47.4753V47.4497C154.817 46.1297 153.798 45.4399 152.304 45.4399H149.952V49.5191H152.228Z" fill="#6D6E71"></path>
    <path d="M157.923 44.8608H158.5L161.836 49.7916L165.172 44.8608H165.75V53.1895H165.13V45.9509L161.845 50.7454H161.794L158.508 45.9509V53.1895H157.914V44.8608H157.923Z" fill="#6D6E71"></path>
    <path d="M169.078 44.8608H174.987V45.4314H169.698V48.7016H174.452V49.2721H169.698V52.6189H175.046V53.1895H169.078V44.8608Z" fill="#6D6E71"></path>
    <path d="M177.61 44.8608H178.187L183.918 52.108V44.8608H184.512V53.1895H184.045L178.196 45.7891V53.1895H177.602V44.8608H177.61Z" fill="#6D6E71"></path>
    <path d="M189.918 45.4402H187.023V44.8696H193.433V45.4402H190.538V53.1983H189.918V45.4402Z" fill="#6D6E71"></path>
    <path d="M200.395 49.051V49.0254C200.395 46.6665 202.152 44.7163 204.546 44.7163C206.031 44.7163 206.923 45.2613 207.772 46.0533L207.33 46.5047C206.609 45.8064 205.777 45.2784 204.529 45.2784C202.534 45.2784 201.031 46.9049 201.031 48.9999V49.0254C201.031 51.1289 202.559 52.7724 204.546 52.7724C205.743 52.7724 206.566 52.3041 207.407 51.478L207.823 51.8868C206.948 52.7554 205.997 53.343 204.52 53.343C202.143 53.343 200.395 51.4525 200.395 49.0595V49.051Z" fill="#6D6E71"></path>
    <path d="M209.699 49.051V49.0254C209.699 46.7516 211.372 44.7163 213.884 44.7163C216.397 44.7163 218.053 46.7261 218.053 48.9999V49.0254C218.053 51.2992 216.38 53.3345 213.867 53.3345C211.355 53.3345 209.699 51.3247 209.699 49.051ZM217.408 49.051V49.0254C217.408 46.9645 215.913 45.2784 213.859 45.2784C211.805 45.2784 210.336 46.9475 210.336 48.9999V49.0254C210.336 51.0863 211.83 52.7725 213.884 52.7725C215.939 52.7725 217.408 51.1033 217.408 49.051Z" fill="#6D6E71"></path>
    <path d="M220.954 44.8608H221.531L224.867 49.7916L228.204 44.8608H228.781V53.1895H228.161V45.9509L224.876 50.7454H224.825L221.54 45.9509V53.1895H220.945V44.8608H220.954Z" fill="#6D6E71"></path>
    <path d="M232.11 44.8608H235.124C236.949 44.8608 238.205 45.7976 238.205 47.4071V47.4327C238.205 49.1785 236.703 50.0897 234.962 50.0897H232.721V53.198H232.102V44.8694L232.11 44.8608ZM235.005 49.5191C236.55 49.5191 237.594 48.7101 237.594 47.4753V47.4497C237.594 46.1297 236.575 45.4399 235.081 45.4399H232.73V49.5191H235.005Z" fill="#6D6E71"></path>
    <path d="M243.046 44.8013H243.64L247.511 53.1895H246.832L245.779 50.8562H240.881L239.828 53.1895H239.191L243.063 44.8013H243.046ZM245.516 50.3026L243.334 45.4826L241.135 50.3026H245.516Z" fill="#6D6E71"></path>
    <path d="M249.973 44.8608H250.551L256.281 52.108V44.8608H256.875V53.1895H256.408L250.559 45.7891V53.1895H249.965V44.8608H249.973Z" fill="#6D6E71"></path>
    <path d="M262.827 49.9026L259.27 44.8696H260.042L263.149 49.349L266.273 44.8696H267.012L263.455 49.8941V53.2068H262.835V49.9111L262.827 49.9026Z" fill="#6D6E71"></path>
    <path d="M93.9883 35.8511V36.5664L266.992 36.5664V35.8511L93.9883 35.8511Z" fill="#CF3339"></path>
  </g>
  <defs>
    <clipPath id="clip0_1459_1614">
      <rect width="259" height="54" fill="white" transform="translate(8 2)"></rect>
    </clipPath>
  </defs>
</svg>