<svg xmlns="http://www.w3.org/2000/svg" width="220" height="50" fill="none">
    <path fill="#fff"
          d="M21.08 46.38h-3.61V9.86c0-5.66 1.58-7.02 8-7.42v-.99H0v.97c6.45.4 8 1.78 8 7.41v30.54c0 5.65-1.58 7.02-8 7.41v1h39.1V28.6h-1c-1.84 15.82-7.94 17.78-17.02 17.78Zm29.37-35.2c2.61 0 5-2.18 5-5 0-2.68-2.36-5-5-5a5.06 5.06 0 0 0-5.06 5c0 2.82 2.24 5 5.06 5Zm125.13 31.19V0h-.2l-13.86 3.94v.86c4.47 0 5.85 1.38 5.85 4.6v32.97c0 4-.79 5-5.32 5.46v.99h18.66v-1c-4.34-.45-5.13-1.44-5.13-5.45Zm-121.07 0v-26.2h-.2L40.4 20.11v.92c4.66 0 5.92 1.39 5.92 4.53v16.81c0 4-.86 5-5.33 5.46v.99h18.66v-1c-4.2-.45-5.13-1.44-5.13-5.45Z"/>
    <path fill="#fff"
          d="M145.97 15.7c-8 0-13.33 4.8-16.61 13l-1.39 3.49c-3.01 7.6-6.05 10.97-11.37 10.97-6.18 0-10.19-4.73-10.19-13.72 0-6.65 2.75-12.21 8.21-12.21 4.73 0 7.74 4 9 9.72h.92v-9.61a24.43 24.43 0 0 0-9.06-1.65c-9.73 0-17.14 7.48-17.14 18.12 0 9.07 5.98 15.58 14.59 15.58 7.48 0 11.94-4.93 14.71-12.01l1.7-4.34c.66 10.52 7.21 16.44 16.63 16.44 9.79 0 16.68-6.84 16.68-16.88 0-10.14-6.89-16.9-16.68-16.9Zm0 32.26c-4.6 0-7.48-5.46-7.48-15.38 0-9.99 2.88-15.38 7.48-15.38 4.53 0 7.48 5.4 7.48 15.38 0 9.92-2.95 15.38-7.48 15.38Zm68.97-5.59V26.8c0-7.35-4.07-10.92-9.33-10.92-4.53 0-7.68 2.05-10.32 5.68v-5.39h-.2l-13.86 3.94v.92c4.4 0 5.86 1.19 5.86 4.47v16.87c0 4-.86 5-5.33 5.46v.99h17.93v-1c-3.4-.45-4.4-1.44-4.4-5.45V23.12c2.11-1.78 4.14-2.68 6.25-2.68 3.15 0 5.2 2.11 5.2 6.51v15.44c0 4-.93 5-4.34 5.46v.99H220v-.99c-4.14-.48-5.06-1.47-5.06-5.48Zm-121.06 0V26.8c0-7.35-4.07-10.92-9.33-10.92-4.53 0-7.68 2.05-10.32 5.68v-5.39h-.2l-13.86 3.94v.92c4.4 0 5.85 1.19 5.85 4.47v16.87c0 4-.85 5-5.32 5.46v.99h17.93v-1c-3.41-.45-4.4-1.44-4.4-5.45V23.12c2.11-1.78 4.14-2.68 6.25-2.68 3.14 0 5.19 2.11 5.19 6.51v15.44c0 4-.92 5-4.33 5.46v.99h17.6v-.99c-4.14-.48-5.06-1.47-5.06-5.48Z"/>
</svg>